<!DOCTYPE svg PUBLIC "-//W3C//DTD SVG 1.1//EN" "http://www.w3.org/Graphics/SVG/1.1/DTD/svg11.dtd">
<!-- Uploaded to: SVG Repo, www.svgrepo.com, Transformed by: SVG Repo Mixer Tools -->
<svg fill="#000000" width="64px" height="64px" viewBox="-2 -2 24.00 24.00" xmlns="http://www.w3.org/2000/svg" stroke="#000000" stroke-width="0.0002" transform="matrix(-1, 0, 0, 1, 0, 0)rotate(0)">
<g id="SVGRepo_bgCarrier" stroke-width="0">
<rect x="-2" y="-2" width="24.00" height="24.00" rx="12" fill="#7B61FF" strokewidth="0"/>
</g>
<g id="SVGRepo_tracerCarrier" stroke-linecap="round" stroke-linejoin="round"/>
<g id="SVGRepo_iconCarrier">
<path d="M10 .4C4.697.4.399 4.698.399 10A9.6 9.6 0 0 0 10 19.601c5.301 0 9.6-4.298 9.6-9.601 0-5.302-4.299-9.6-9.6-9.6zm-.001 17.2a7.6 7.6 0 1 1 0-15.2 7.6 7.6 0 1 1 0 15.2zM10 5.5l4.5 4.5H12v4H8v-4H5.5L10 5.5z"/>
</g>
</svg>